<svg width="85" height="85" viewBox="0 0 85 85" fill="none" xmlns="http://www.w3.org/2000/svg">
<path d="M42.4965 0C31.2248 0.000920066 20.4152 4.47947 12.4455 12.4504C4.47587 20.4214 -0.000919924 31.2318 1.4179e-07 42.5035C0.000920208 53.7752 4.47947 64.5849 12.4504 72.5545C20.4214 80.5241 31.2318 85.0009 42.5035 85C53.7743 85 64.5834 80.5227 72.5531 72.5531C80.5227 64.5834 85 53.7743 85 42.5035C85 31.2327 80.5227 20.4235 72.5531 12.4539C64.5834 4.48424 53.7743 0.00693839 42.5035 0.00693822L42.4965 0ZM42.4965 76.4938C33.4833 76.4828 24.8424 72.8974 18.469 66.5241C12.0957 60.1507 8.51033 51.5098 8.49931 42.4965C8.49931 23.7564 23.7564 8.49931 42.4965 8.49931C61.2436 8.49931 76.4938 23.7564 76.4938 42.4965C76.4938 61.2436 61.2505 76.4938 42.4965 76.4938Z" fill="#A98242"/>
</svg>
