<svg width="9" height="42" viewBox="0 0 9 42" fill="none" xmlns="http://www.w3.org/2000/svg">
<path d="M4.22048 12.6477C3.66624 12.6477 3.11742 12.7568 2.60537 12.9689C2.09332 13.181 1.62806 13.4919 1.23615 13.8838C0.844242 14.2757 0.533362 14.741 0.321263 15.253C0.109164 15.7651 -1.23614e-08 16.3139 0 16.8681V37.9499C0.0440087 39.0388 0.507548 40.0685 1.29358 40.8235C2.07962 41.5784 3.1272 41.9999 4.21703 41.9999C5.30687 41.9999 6.35445 41.5784 7.14049 40.8235C7.92652 40.0685 8.39006 39.0388 8.43407 37.9499V16.8681C8.43498 16.3142 8.32666 15.7656 8.11531 15.2536C7.90396 14.7416 7.59373 14.2762 7.20238 13.8842C6.81102 13.4922 6.34621 13.1813 5.83454 12.9691C5.32287 12.7569 4.7744 12.6477 4.22048 12.6477ZM4.22048 1.4059e-06C3.66624 0.000453468 3.11751 0.110067 2.60563 0.322583C2.09375 0.5351 1.62875 0.846359 1.23716 1.23859C0.84557 1.63081 0.53507 2.09633 0.323389 2.60855C0.111708 3.12078 0.00298933 3.66968 0.00344141 4.22392C0.00389348 4.77816 0.113507 5.32689 0.326023 5.83877C0.53854 6.35065 0.849796 6.81566 1.24202 7.20724C1.63425 7.59883 2.09977 7.90933 2.61199 8.12101C3.12422 8.33269 3.67312 8.44141 4.22736 8.44096C5.3467 8.44005 6.41984 7.99451 7.21068 7.20238C8.00153 6.41024 8.44531 5.33638 8.4444 4.21704C8.44348 3.0977 7.99795 2.02457 7.20581 1.23372C6.41367 0.44287 5.33982 -0.000911574 4.22048 1.4059e-06Z" fill="#A98242"/>
</svg>
