<svg width="55" height="64" viewBox="0 0 55 64" fill="none" xmlns="http://www.w3.org/2000/svg">
<path d="M41.3333 1.04115C41.9411 0.433411 42.7485 0.0664463 43.606 0.00818206C44.4635 -0.0500822 45.3132 0.204299 45.9976 0.724237L46.3632 1.04115L53.4734 8.15129C54.7451 9.42705 54.8548 11.422 53.7903 12.8155L53.4734 13.1812L46.3632 20.2913C45.7268 20.9322 44.8704 21.3069 43.9678 21.3392C43.0652 21.3716 42.1841 21.0591 41.5035 20.4654C40.8229 19.8717 40.3938 19.0412 40.3034 18.1426C40.2129 17.2439 40.4678 16.3446 41.0164 15.6271L41.3333 15.2614L45.9326 10.6662L41.3333 6.07106C40.7256 5.46327 40.3586 4.65589 40.3003 3.79836C40.2421 2.94083 40.4965 2.09122 41.0164 1.40681L41.3333 1.04115ZM8.15535 1.04115C8.79326 0.407312 9.64768 0.0387734 10.5465 0.00977941C11.4453 -0.0192146 12.3217 0.293491 12.9991 0.884894C13.6765 1.4763 14.1047 2.30245 14.1973 3.19694C14.2899 4.09143 14.04 4.98777 13.4981 5.7054L13.1812 6.07106L8.58602 10.6662L13.1812 15.2614C14.4529 16.5372 14.5626 18.5321 13.4981 19.9257L13.1812 20.2913C12.5734 20.8991 11.766 21.2661 10.9085 21.3243C10.051 21.3826 9.20136 21.1282 8.51695 20.6083L8.15129 20.2913L1.04115 13.1812C0.433411 12.5734 0.0664463 11.766 0.00818206 10.9085C-0.0500822 10.051 0.204299 9.20136 0.724237 8.51695L1.04521 8.15129L8.15535 1.04115ZM24.7443 38.9646C25.3516 38.3563 26.1587 37.9886 27.0163 37.9296C27.8738 37.8705 28.7237 38.1242 29.4086 38.6436L29.7742 38.9646L48.7319 57.9223C49.3728 58.5587 49.7475 59.4151 49.7798 60.3177C49.8121 61.2203 49.4997 62.1014 48.906 62.782C48.3123 63.4626 47.4818 63.8917 46.5831 63.9822C45.6845 64.0726 44.7851 63.8177 44.0677 63.2691L43.702 62.9522L27.2552 46.5054L10.8125 62.9522C10.2047 63.5599 9.39734 63.9269 8.53981 63.9852C7.68228 64.0434 6.83267 63.789 6.14826 63.2691L5.7826 62.9522C5.17486 62.3444 4.8079 61.537 4.74963 60.6795C4.69137 59.822 4.94575 58.9724 5.46569 58.2879L5.7826 57.9223L24.7443 38.9646Z" fill="#A98242"/>
</svg>
