<svg width="96" height="96" viewBox="0 0 96 96" fill="none" xmlns="http://www.w3.org/2000/svg">
<path d="M33.6661 0.501602C43.2027 0.501626 51.5372 2.32124 57.4677 5.32071C63.4155 8.32899 66.8305 12.4541 66.8307 17.0339V37.5486L67.3107 37.5682C82.7362 38.2098 95.0818 50.5036 95.082 66.4985C95.082 82.4922 82.0759 95.4984 66.0822 95.4984C61.3257 95.4964 56.6433 94.3198 52.4507 92.0734L52.2617 91.9725L52.0589 92.0381C46.6744 93.7826 40.3554 94.7068 33.6661 94.7068C24.1295 94.7068 15.7951 92.8872 9.86452 89.8877C3.91654 86.8793 0.501652 82.7545 0.501602 78.1745V17.0339C0.501786 12.4611 3.91631 8.33575 9.86452 5.3256C15.7951 2.32439 24.1296 0.501602 33.6661 0.501602ZM66.0822 43.4376C53.3663 43.4377 43.0214 53.7827 43.0212 66.4985C43.0212 79.2145 53.3662 89.5604 66.0822 89.5605C78.7982 89.5605 89.1441 79.2146 89.1441 66.4985C89.1439 53.7826 78.7981 43.4376 66.0822 43.4376ZM6.43951 78.1745C6.43956 79.4195 7.2064 80.6783 8.41849 81.8258C9.64387 82.9859 11.394 84.1003 13.5246 85.0598L13.6226 85.1039H13.6393C18.9713 87.472 26.0839 88.7689 33.6798 88.7689C37.681 88.7689 41.6003 88.3908 45.201 87.6903L46.119 87.512L45.4626 86.8458C41.4913 82.8198 38.707 77.6476 37.6153 71.8751L37.5349 71.447L37.099 71.4675C35.9548 71.5227 34.8103 71.5508 33.6661 71.5508C22.5367 71.5508 13.0801 69.0624 7.22033 65.1515L6.43951 64.6312V78.1745ZM6.43951 56.8985L6.48164 56.9946C7.02226 58.2405 8.14279 59.4332 9.68425 60.5165C11.2325 61.6047 13.2416 62.6083 15.6143 63.4635C20.361 65.174 26.6118 66.3065 33.6661 66.3065C34.1637 66.3065 34.6607 66.2992 35.1572 66.2869L36.6444 66.237H37.1274L37.1382 65.7461C37.2368 61.2317 38.4011 56.8041 40.5357 52.825L40.9776 52.003L40.0478 52.0892C37.9654 52.2823 35.8287 52.392 33.6661 52.392C22.5358 52.392 13.0794 49.9178 7.22033 45.9936L6.43951 45.4704V56.8985ZM60.1021 27.207C54.157 31.0932 44.7257 33.5534 33.6524 33.5535C22.579 33.5535 13.1469 31.0932 7.20171 27.207L6.4258 26.6995V37.727L6.46695 37.822C7.00749 39.0679 8.12899 40.2612 9.67054 41.3459C11.2188 42.4354 13.2276 43.4418 15.6006 44.2987C20.3473 46.0128 26.598 47.1477 33.6524 47.1477C37.7532 47.1476 41.813 46.7285 45.5253 45.972L45.6713 45.9417L45.7771 45.8378C49.7345 41.935 54.8104 39.1781 60.4734 38.0591L60.878 37.9787V26.6995L60.1021 27.207ZM33.6661 6.43951C25.4523 6.43951 18.7013 7.94619 13.9871 9.98698C11.6319 11.0066 9.76684 12.1667 8.48217 13.3552C7.21145 14.5307 6.43967 15.7997 6.43951 17.0339V17.0848C6.46048 18.3152 7.24133 19.5785 8.51744 20.7499C9.80726 21.9337 11.6718 23.0891 14.0243 24.1034C18.7332 26.1335 25.4664 27.6283 33.6661 27.6283C41.8659 27.6283 48.6095 26.1266 53.3236 24.0877C55.679 23.0689 57.5454 21.9084 58.8334 20.7195C60.1078 19.5432 60.8834 18.2738 60.8918 17.0378V17.0339C60.8916 15.7997 60.1199 14.5308 58.8491 13.3552C57.5644 12.1667 55.6994 11.0065 53.3442 9.98698C48.63 7.94624 41.8798 6.43954 33.6661 6.43951Z" fill="#A98242" stroke="black"/>
</svg>
