<svg width="119" height="91" viewBox="0 0 119 91" fill="none" xmlns="http://www.w3.org/2000/svg">
<path d="M99.6667 24.7333C105.8 24.7333 110.733 19.9333 110.733 14.0667V11.3333C110.733 5.46667 105.733 0.666668 99.6667 0.666668C93.6 0.666668 88.5333 5.46667 88.5333 11.3333V14.0667C88.6 19.9333 93.5333 24.7333 99.6667 24.7333ZM99.6667 5C103.333 5 106.267 7.8 106.267 11.2V14.1333C106.267 17.5333 103.267 20.3333 99.6667 20.3333C96 20.3333 93.0667 17.5333 93.0667 14.1333V11.1333C93.0667 7.8 96 5 99.6667 5ZM115.133 31.3333V53.0667H112.333V35.4C112.333 29.9333 108.2 25.9333 102.533 25.9333H94.9333C94.4 25.9333 93.8667 26.0667 93.4666 26.4L80.8667 34.0667H72.2C71.6667 34.0667 71.1333 34.2667 70.7333 34.5333L67.7333 24.2C67.6667 23.8667 67.4667 23.6667 67.1333 23.4667C66.8667 23.3333 66.5333 23.2667 66.2 23.4C65.8667 23.4667 65.6667 23.6667 65.4667 24C65.2667 24.3333 65.2667 24.6 65.3333 24.9333L68.0667 34.2L65.9333 35.2C65.7333 35.2667 65.5333 35.4667 65.4667 35.7333C65.3333 35.9333 65.3333 36.0667 65.3333 36.2667V42.1333H62.6C62.0667 42.1333 61.6 42.6 61.6 43.2C61.6 43.7333 62.0667 44.2 62.6 44.2H70.4667C70.6 44.2 70.7333 44.2 70.8667 44.1333L71.2667 44.9333H47.5333C47.6667 44.7333 47.8 44.5333 47.9333 44.2667H60.2C60.8667 44.2667 61.3333 43.7333 61.3333 43.1333C61.3333 42.4667 60.8 42 60.2 42H60.0667L66.2 31.1333C66.4667 30.6667 66.3333 30 65.8 29.7333C65.3333 29.4667 64.7333 29.6 64.4 30.1333L57.7333 41.9333H48.8667C49.8 38.8667 49.4667 35.8 49.4667 35.7333C49.3333 34.4 48.2 33.4667 46.9333 33.4667H38.2L25.6667 25.8667C25.2 25.5333 24.7333 25.4 24.2 25.4H16.5333C10.8667 25.4 6.73333 29.4 6.73333 34.8667V52.4667H3.93333V30.7333H0V59.4667C0 69.3333 6.8 76.5333 16.1333 76.7333L16.2 83.6L13.5333 86.2667H6.73333V90.2667H14.6667C15.3333 90.2667 16 90 16.4667 89.5333L18.4667 87.5333L20.4667 89.5333C20.9333 90 21.6 90.2667 22.2667 90.2667H31.1333V86.2667H23.3333L20.3333 83.2667V76.8H31.1333V72.8H16.5333C9.66667 72.8 3.93333 66.7333 3.93333 59.5333V56.5333H6.73333C7.13333 63.6 12.7333 68.7333 20.3333 68.7333L32.3333 68.6L43.2 89.4667H57L55.8 86.2667L46.8667 59.3333C45.8667 56.5333 43.8667 54.5333 41.0667 53.4H79.7333C76 54.2667 73.3333 56.5333 72.1333 59.9333L62.9333 87.7333L62.2 89.7333H76L86.6667 69.2L98.6667 69.3333C106.267 69.3333 111.867 64.2667 112.267 57.1333H115.067V60.1333C115.067 67.3333 109.267 73.4 102.467 73.4H87.9333V77.4H98.7333V83.8667L95.7333 86.8667H87.9333V90.8667H96.8C97.4667 90.8667 98.1333 90.6 98.6 90.1333L100.6 88.1333L102.6 90.1333C103.067 90.6 103.733 90.8667 104.4 90.8667H112.333V86.8667H105.467L102.8 84.2L102.867 77.3333C112.267 77.1333 119 69.8667 119 60.0667V31.3333H115.133ZM67.3333 36.5333L68.6 35.9333L69.4 38.7333L69.6 39.1333C69.6667 40 69.8 41 70.0667 42.0667H67.3333V36.5333ZM99.5333 65.2H85.4667C84.5333 65.2 83.6667 65.7333 83.2 66.5333L72.9333 86H68L76.3333 61.4C77.3333 58.6 80.8 57.0667 83.5333 57.0667H92.2C93.6 57.0667 94.8 55.9333 94.8 54.5333V44.7333L100.8 40.9333L97.8667 37.3333L85.4667 44.8667H78.2667C77.0667 44.8 75.9333 44.1333 74.8667 42.9333C74.2667 42.2667 73.8667 40.6 73.6 38.1333H81.6667C82.2 38.1333 82.7333 38 83.1333 37.6667L95.7333 30H102.533C104.733 30 107.467 30.7333 108.333 34.2V53.0667H102.533C101.667 53.0667 100.933 53.4667 100.4 54.2L96.2 59.2L99.3333 61.6667L102.8 57.1333H108.333C107.867 61.6 104.067 65.2 99.5333 65.2ZM84.9333 48.9333V49.4H33.4V48.9333H84.9333ZM46.3333 85.8L35.9333 66C35.4667 65.2 34.6 64.6667 33.6667 64.6667H19.5333C14.9333 64.6667 11.1333 61.0667 10.7333 56.4667H16.2667L19.7333 61L22.8667 58.5333L18.6667 53.5333C18.2 52.8667 17.4 52.4 16.5333 52.4H10.7333V33.6667C11.6 30.2 14.3333 29.4667 16.5333 29.4667H23.3333L35.9333 37.1333C36.4 37.4667 36.8667 37.6 37.4 37.6H45.5333C45.3333 39.7333 44.9333 41.3333 44.4 42.1333C44.1333 42.2667 44 42.4667 43.8667 42.7333C42.8 43.8 41.7333 44.3333 40.5333 44.3333H33.7333L21.2667 36.8L18.3333 40.4L24.3333 44.2V54C24.3333 55.4 25.4667 56.6 26.9333 56.6H35.6C38.4 56.6 41.8667 58.1333 42.8 60.9333L51.2 85.8667H46.3333V85.8ZM29.4 52.4H28.4V46.6667L29.4 47.2667V52.4ZM90.7333 47.2667V53H89V48.4L90.7333 47.2667ZM19.4 24.1333C25.5333 24.1333 30.5333 19.3333 30.5333 13.4667V10.7333C30.5333 4.8 25.5333 0 19.4 0C13.2667 0 8.33333 4.8 8.33333 10.7333V13.4667C8.33333 19.3333 13.2667 24.1333 19.4 24.1333ZM12.8 10.6C12.8 7.2 15.8 4.4 19.4 4.4C23.0667 4.4 26 7.13333 26 10.6V13.6C26 17 23.0667 19.8 19.4 19.8C15.7333 19.8 12.8 17.0667 12.8 13.6V10.6Z" fill="#A98242"/>
</svg>
